<svg xmlns="http://www.w3.org/2000/svg" viewBox="4 12 330 63" width="660" height="126" role="img" aria-label="MuleMesh">
  <title>MuleMesh</title>
  <!-- Dark-background lockup, no plate — for dark slides, the app, video
       overlays. Same black/yellow language as the poster badge, minus the
       plate, so the surface behind it shows through. -->

  <g transform="translate(0 10) scale(1.05)">
    <path d="M32 10 51.05 21 51.05 43 32 54 12.95 43 12.95 21Z"
          fill="none" stroke="#ffc400" stroke-width="1.9" stroke-linejoin="round" opacity="0.4"/>

    <g stroke="#ffc400" stroke-width="2.5" stroke-linecap="round" opacity="0.55">
      <path d="M12.95 21 32 32"/>
      <path d="M12.95 43 32 32"/>
      <path d="M32 10 32 32"/>
      <path d="M32 54 32 32"/>
      <path d="M32 32 51.05 21"/>
      <path d="M32 32 51.05 43"/>
    </g>

    <circle cx="12.95" cy="21" r="4.5" fill="#ffc400"/>
    <circle cx="12.95" cy="43" r="4.5" fill="#ffc400"/>
    <circle cx="32" cy="10" r="4.5" fill="#ffc400"/>
    <circle cx="32" cy="54" r="4.5" fill="#ffc400"/>
    <circle cx="51.05" cy="21" r="4.5" fill="#ffc400"/>
    <circle cx="51.05" cy="43" r="4.5" fill="#ffc400"/>

    <circle cx="32" cy="32" r="8.4" fill="#0d0d0d" stroke="#ffc400" stroke-width="2.6"/>
  </g>

  <text x="82" y="62"
        font-family="'Segoe UI Variable Display','Segoe UI',Inter,system-ui,-apple-system,'Helvetica Neue',Arial,sans-serif"
        font-size="52" font-weight="700" letter-spacing="-1.2"
        fill="#ffffff">Mule<tspan fill="#ffc400">Mesh</tspan></text>
</svg>
